name analog
datacolumns 19
datarows 47
range 0.0 0.023
endheader
time	ground_force_vx	ground_force_vy	ground_force_vz	ground_force_px	ground_force_py	ground_force_pz	l_ground_force_vx	l_ground_force_vy	l_ground_force_vz	l_ground_force_px	l_ground_force_py	l_ground_force_pz	ground_torque_x	ground_torque_y	ground_torque_z	l_ground_torque_x	l_ground_torque_y	l_ground_torque_z
0.0	-0.0	-0.0	-0.0	10.028769493103027	21.896453857421875	-435.11767578125	-10.179256439208984	-22.85293197631836	-281.27032470703125	-0.0	-0.0	-0.0	-0.0	-0.0	-0.0	97584.6796875	22942.41796875	-7906.3212890625
0.0005	-0.0	-0.0	-0.0	9.66453742980957	21.643798828125	-434.5584106445313	-10.07600212097168	-22.912181854248047	-281.5042724609375	-0.0	-0.0	-0.0	-0.0	-0.0	-0.0	97362.5234375	23035.140625	-7839.39111328125
0.001	-0.0	-0.0	-0.0	9.805421829223633	21.4881534576416	-435.7056274414063	-10.098320960998535	-22.499834060668945	-281.18463134765625	-0.0	-0.0	-0.0	-0.0	-0.0	-0.0	97438.7109375	23092.0703125	-7873.86767578125
0.0015	-0.0	-0.0	-0.0	9.835217475891112	21.88199615478516	-435.0581970214844	-10.23130702972412	-22.6618709564209	-282.0272216796875	-0.0	-0.0	-0.0	-0.0	-0.0	-0.0	97558.15625	23215.91796875	-7916.02734375
0.002	-0.0	-0.0	-0.0	9.760998725891112	21.450244903564453	-436.2370300292969	-10.497589111328123	-22.617528915405277	-282.0560607910156	-0.0	-0.0	-0.0	-0.0	-0.0	-0.0	97187.1875	23181.73828125	-7908.8134765625
0.0025	-0.0	-0.0	-0.0	9.865345001220703	21.6738395690918	-434.8245544433594	-10.386218070983888	-22.470441818237305	-281.06707763671875	-0.0	-0.0	-0.0	-0.0	-0.0	-0.0	97420.2578125	23042.419921875	-7844.400390625
0.003	-0.0	-0.0	-0.0	9.89369297027588	21.413047790527344	-434.9712219238281	-10.372244834899902	-23.0152530670166	-281.212158203125	-0.0	-0.0	-0.0	-0.0	-0.0	-0.0	97489.0234375	23096.169921875	-7881.513671875
0.0035	-0.0	-0.0	-0.0	9.893428802490234	21.578487396240234	-434.4113159179688	-10.474602699279783	-22.742042541503903	-282.78009033203125	-0.0	-0.0	-0.0	-0.0	-0.0	-0.0	97299.34375	23148.984375	-8044.89794921875
0.004	-0.0	-0.0	-0.0	10.333045959472656	21.57875061035156	-434.5574951171875	-10.320701599121094	-22.476852416992188	-282.4974365234375	-0.0	-0.0	-0.0	-0.0	-0.0	-0.0	97592.1484375	23016.8515625	-7994.86376953125
0.0045000000000000005	-0.0	-0.0	-0.0	10.42220401763916	21.80612564086914	-436.5303955078125	-10.290451049804688	-22.735279083251957	-282.1742553710937	-0.0	-0.0	-0.0	-0.0	-0.0	-0.0	97408.1328125	23192.908203125	-7992.7197265625
0.005	-0.0	-0.0	-0.0	10.212705612182615	21.39129638671875	-435.34814453125	-10.483124732971191	-22.823562622070312	-281.765380859375	-0.0	-0.0	-0.0	-0.0	-0.0	-0.0	97319.34375	22911.21875	-8022.5439453125
0.0055	-0.0	-0.0	-0.0	10.348419189453123	21.679908752441406	-436.3005676269531	-10.571910858154297	-22.646883010864254	-281.765380859375	-0.0	-0.0	-0.0	-0.0	-0.0	-0.0	97525.9453125	23114.962890625	-7940.7138671875
0.006	-0.0	-0.0	-0.0	10.127673149108888	21.637544631958008	-433.7887573242188	-10.415827751159668	-22.42782592773437	-282.0772399902344	-0.0	-0.0	-0.0	-0.0	-0.0	-0.0	97429.71875	23223.75390625	-8024.37109375
0.006500000000000001	-0.0	-0.0	-0.0	10.107181549072266	21.627307891845703	-436.65472412109375	-10.556583404541016	-22.78699493408203	-282.114501953125	-0.0	-0.0	-0.0	-0.0	-0.0	-0.0	97531.3828125	23256.345703125	-8040.0029296875
0.007	-0.0	-0.0	-0.0	9.776440620422363	21.96276092529297	-435.9898071289063	-10.415752410888672	-22.516521453857425	-280.5345764160156	-0.0	-0.0	-0.0	-0.0	-0.0	-0.0	97153.7890625	23219.39453125	-8099.17431640625
0.0075	-0.0	-0.0	-0.0	9.760639190673828	21.821138381958008	-433.932861328125	-10.577579498291016	-22.39729881286621	-281.49884033203125	-0.0	-0.0	-0.0	-0.0	-0.0	-0.0	97268.375	23292.814453125	-8074.81005859375
0.008	-0.0	-0.0	-0.0	9.513726234436035	21.957847595214844	-436.0321044921875	-10.749652862548828	-22.5739803314209	-281.2108459472656	-0.0	-0.0	-0.0	-0.0	-0.0	-0.0	97002.25	23245.501953125	-8087.23046875
0.0085	-0.0	-0.0	-0.0	9.497601509094238	21.768442153930664	-436.4039001464844	-10.765450477600098	-22.517004013061523	-280.20526123046875	-0.0	-0.0	-0.0	-0.0	-0.0	-0.0	97010.0546875	23288.94921875	-8075.04931640625
0.009000000000000001	-0.0	-0.0	-0.0	9.671326637268066	21.94662475585937	-434.9907836914063	-10.608826637268066	-22.288476943969727	-280.4501953125	-0.0	-0.0	-0.0	-0.0	-0.0	-0.0	96892.71875	23092.19140625	-8081.8251953125
0.0095	-0.0	-0.0	-0.0	9.918469429016112	22.079561233520508	-435.6156005859375	-10.597743034362791	-22.064640045166016	-280.69927978515625	-0.0	-0.0	-0.0	-0.0	-0.0	-0.0	96946.5390625	22952.583984375	-8087.06201171875
0.01	-0.0	-0.0	-0.0	9.853832244873049	21.800464630126957	-436.86712646484375	-10.859107971191406	-22.325008392333984	-280.0823059082031	-0.0	-0.0	-0.0	-0.0	-0.0	-0.0	96828.46875	23006.564453125	-8125.365234375
0.0105	-0.0	-0.0	-0.0	9.83339500427246	21.89361953735352	-436.1930541992188	-11.052488327026367	-22.46990776062012	-281.06707763671875	-0.0	-0.0	-0.0	-0.0	-0.0	-0.0	96852.3359375	22972.302734375	-8219.8134765625
0.011	-0.0	-0.0	-0.0	9.898526191711426	21.94236946105957	-436.8038330078125	-10.927478790283203	-22.445484161376957	-279.9564514160156	-0.0	-0.0	-0.0	-0.0	-0.0	-0.0	96835.0390625	23174.5390625	-8099.6083984375
0.0115	-0.0	-0.0	-0.0	9.889636993408203	21.909711837768555	-436.8042907714844	-10.891263008117676	-22.245027542114254	-280.6544494628906	-0.0	-0.0	-0.0	-0.0	-0.0	-0.0	97034.5	23108.119140625	-8162.9150390625
0.012	-0.0	-0.0	-0.0	10.117164611816406	21.86983299255371	-439.4210205078125	-10.500277519226074	-22.36151885986328	-280.6390075683594	-0.0	-0.0	-0.0	-0.0	-0.0	-0.0	96815.9453125	22934.0703125	-8164.0537109375
0.0125	-0.0	-0.0	-0.0	10.064278602600098	21.65535926818848	-439.0812072753906	-10.609066009521484	-22.485960006713867	-279.2573547363281	-0.0	-0.0	-0.0	-0.0	-0.0	-0.0	96905.5546875	23139.07421875	-8176.302734375
0.013000000000000001	-0.0	-0.0	-0.0	10.064203262329102	21.889799118041992	-439.0807800292969	-10.858905792236328	-22.4895133972168	-280.79608154296875	-0.0	-0.0	-0.0	-0.0	-0.0	-0.0	96904.078125	23274.01953125	-8122.6396484375
0.0135	-0.0	-0.0	-0.0	10.222933769226074	22.14058303833008	-437.5899658203125	-10.908082962036133	-22.18507575988769	-279.3212890625	-0.0	-0.0	-0.0	-0.0	-0.0	-0.0	97045.1328125	23117.974609375	-8165.517578125
0.014	-0.0	-0.0	-0.0	10.09749984741211	21.73394203186035	-438.8591613769531	-11.161102294921877	-22.39773941040039	-278.2864990234375	-0.0	-0.0	-0.0	-0.0	-0.0	-0.0	96924.109375	23245.966796875	-8188.82080078125
0.0145	-0.0	-0.0	-0.0	10.06136417388916	21.78399658203125	-439.002685546875	-11.07231616973877	-22.201662063598636	-278.98406982421875	-0.0	-0.0	-0.0	-0.0	-0.0	-0.0	96794.0078125	23087.375	-8324.9736328125
0.015	-0.0	-0.0	-0.0	9.810708999633787	22.068199157714844	-438.7259521484375	-11.335535049438477	-22.41434860229492	-279.7469787597656	-0.0	-0.0	-0.0	-0.0	-0.0	-0.0	96635.109375	23087.67578125	-8201.0302734375
0.0155	-0.0	-0.0	-0.0	10.027724266052246	21.656373977661133	-438.4394226074219	-11.105506896972656	-21.81545639038086	-280.01959228515625	-0.0	-0.0	-0.0	-0.0	-0.0	-0.0	96614.59375	23251.25390625	-8247.99609375
0.016	-0.0	-0.0	-0.0	9.993703842163086	21.824222564697266	-439.002685546875	-10.997617721557615	-22.29038619995117	-278.4254150390625	-0.0	-0.0	-0.0	-0.0	-0.0	-0.0	96598.65625	23195.21484375	-8284.1552734375
0.0165	-0.0	-0.0	-0.0	10.11298370361328	21.64163589477539	-438.1535034179688	-11.299887657165527	-22.43138694763184	-278.5568542480469	-0.0	-0.0	-0.0	-0.0	-0.0	-0.0	96529.921875	23133.03515625	-8201.0087890625
0.017	-0.0	-0.0	-0.0	9.814981460571287	21.51644325256348	-437.3866882324219	-10.930500984191896	-22.32639503479004	-278.7556457519531	-0.0	-0.0	-0.0	-0.0	-0.0	-0.0	96337.078125	23120.38671875	-8283.333984375
0.0175	-0.0	-0.0	-0.0	9.77878189086914	21.57119369506836	-437.9496154785156	-11.05295753479004	-22.290773391723636	-277.9246826171875	-0.0	-0.0	-0.0	-0.0	-0.0	-0.0	96507.5546875	23159.044921875	-8241.7841796875
0.018000000000000002	-0.0	-0.0	-0.0	10.329708099365234	21.85419464111328	-439.002685546875	-11.12285614013672	-22.14997673034668	-278.6972045898437	-0.0	-0.0	-0.0	-0.0	-0.0	-0.0	96423.0625	23178.861328125	-8218.4873046875
0.0185	-0.0	-0.0	-0.0	9.778498649597168	21.37270164489746	-438.7181091308594	-10.71693515777588	-22.539024353027344	-278.065673828125	-0.0	-0.0	-0.0	-0.0	-0.0	-0.0	96322.171875	23177.61328125	-8188.64453125
0.019	-0.0	-0.0	-0.0	10.312509536743164	21.872825622558597	-437.8009643554688	-10.858506202697754	-22.46934127807617	-278.2004089355469	-0.0	-0.0	-0.0	-0.0	-0.0	-0.0	96359.1015625	23053.455078125	-8094.52734375
0.0195	-0.0	-0.0	-0.0	10.490967750549316	21.516267776489254	-437.6628112792969	-10.947178840637209	-22.41657829284668	-279.18585205078125	-0.0	-0.0	-0.0	-0.0	-0.0	-0.0	96172.71875	23072.224609375	-8176.84375
0.02	-0.0	-0.0	-0.0	10.205832481384276	21.569557189941406	-437.4480895996094	-10.874558448791504	-21.920982360839844	-277.7841186523437	-0.0	-0.0	-0.0	-0.0	-0.0	-0.0	96289.2109375	23098.498046875	-8182.8564453125
0.0205	-0.0	-0.0	-0.0	10.419415473937988	21.551979064941406	-438.4380798339844	-10.804360389709473	-22.23980712890625	-278.2738647460937	-0.0	-0.0	-0.0	-0.0	-0.0	-0.0	96241.96875	23008.92578125	-8147.4189453125
0.021	-0.0	-0.0	-0.0	10.52727222442627	21.622949600219727	-439.002685546875	-10.768821716308594	-22.309890747070312	-277.78436279296875	-0.0	-0.0	-0.0	-0.0	-0.0	-0.0	96297.234375	22941.873046875	-8064.2021484375
0.021500000000000002	-0.0	-0.0	-0.0	10.75898265838623	21.444482803344727	-438.3665466308594	-10.627811431884766	-22.2048454284668	-278.2050170898437	-0.0	-0.0	-0.0	-0.0	-0.0	-0.0	96490.3984375	23100.9140625	-8182.71923828125
0.022	-0.0	-0.0	-0.0	10.687463760375977	21.515989303588867	-439.2845153808594	-10.875839233398438	-22.16874313354492	-279.4593200683594	-0.0	-0.0	-0.0	-0.0	-0.0	-0.0	96225.21875	22866.33203125	-8022.65625
0.0225	-0.0	-0.0	-0.0	10.812344551086426	21.39129638671875	-438.9322204589844	-10.69845485687256	-22.504169464111328	-279.6691589355469	-0.0	-0.0	-0.0	-0.0	-0.0	-0.0	96323.2890625	23097.59765625	-8040.50244140625
0.023	-0.0	-0.0	-0.0	10.687313079833984	21.39156150817871	-439.1427001953125	-10.716320037841797	-22.292280197143555	-278.6224365234375	-0.0	-0.0	-0.0	-0.0	-0.0	-0.0	96706.6328125	23177.681640625	-8046.32470703125
